<svg xmlns="http://www.w3.org/2000/svg" viewBox="0 0 85 85">
  <path fill="#6F6F6F" d="M75.2,70.1c0,1.4-0.5,2.6-1.5,3.6c-1,1-2.2,1.5-3.6,1.5c-1.4,0-2.6-0.5-3.6-1.5L53.1,60.2
	c-4.7,3.3-9.9,5-15.7,5c-3.9,0-7.4-0.7-10.7-2.2c-3.5-1.5-6.4-3.4-8.8-5.9c-2.5-2.4-4.4-5.3-5.9-8.8c-1.5-3.7-2.2-7.2-2.2-10.7
	c0-3.7,0.7-7.2,2.2-10.7c1.6-3.6,3.5-6.6,5.9-8.9c2.5-2.5,5.4-4.4,8.8-5.9c3.4-1.4,7-2.1,10.7-2.1c3.8,0,7.4,0.7,10.9,2.1
	c3.6,1.7,6.5,3.6,8.8,5.9c2.4,2.4,4.4,5.4,5.9,8.9c1.5,3.5,2.2,7.1,2.2,10.7c0,5.8-1.7,11-5,15.7l13.5,13.5
	C74.7,67.7,75.2,68.8,75.2,70.1z M55,37.5c0-5-1.7-9.1-5.1-12.5c-3.4-3.4-7.6-5.1-12.5-5.1c-4.9,0-9,1.7-12.4,5.1
	c-3.5,3.5-5.2,7.7-5.2,12.5c0,4.8,1.7,8.9,5.2,12.4c3.5,3.5,7.6,5.2,12.4,5.2c4.9,0,9-1.7,12.5-5.2C53.3,46.5,55,42.4,55,37.5z" />
</svg>